<?xml version="1.0" encoding="utf-8"?>
<!-- Generator: Adobe Illustrator 21.1.0, SVG Export Plug-In . SVG Version: 6.00 Build 0)  -->
<svg version="1.1" id="Layer_1" xmlns="http://www.w3.org/2000/svg" xmlns:xlink="http://www.w3.org/1999/xlink" x="0px" y="0px"
	 viewBox="0 0 300 300" style="enable-background:new 0 0 300 300;" xml:space="preserve">
<path style="fill:#62BB46;" d="M266.5,123.8l-21.5-4.6c0,0-8.9-70.5-76.2-84.5C97,19.8,62.9,81.1,62.9,81.1L39.6,76
	c-8.3-1.1-9.7,6.4-9.7,6.4l8.2,149.5c-0.4,6.4,6.9,8.3,6.9,8.3l150.8,31.4c8.6,0.8,9.4-4.6,9.4-4.6l67.3-132.2
	C275.9,125.4,266.5,123.8,266.5,123.8z M163.8,50c58.8,12.7,64.4,65.7,64.4,65.7L79.6,84.6C79.6,84.6,110.4,38.5,163.8,50z
	 M188,159.6l-38-8l7.1-34.5l43.9,9.2L188,159.6z M171.6,201.8l-30.5-6.5l5.8-28.4l35.4,7.4L171.6,201.8z M197.7,177.6l31.9,6.7
	l-13.7,26.9L187,205L197.7,177.6z M95.5,156.1l36.2,7.6l-5.8,28.4l-32.6-6.9L95.5,156.1z M77.9,181.9l-27.2-5.8L49,146.4l31.1,6.5
	L77.9,181.9z M134.8,148.4l-38.2-8l2.7-35.5l42.5,8.9L134.8,148.4z M56.2,95.9c-2.1,4.6-3.5,12.9-4,14.2c-0.6,1.3-0.8,7.8,5.4,9.4
	c6.2,1.6,9.1-2.7,9.6-5.4c0.5-3.8,4.6-15,4.6-15l12.2,2.6l-2.7,35.5l-33.2-7l-2-36.1L56.2,95.9z M53.6,225.4l-1.9-32.7l25,5.2
	l-2.4,31.8L53.6,225.4z M89.7,233l2.4-31.8l30.6,6.4l-6.4,31L89.7,233z M131.5,241.8l6.4-31l27.9,5.8l-11.7,29.9L131.5,241.8z
	 M193.6,254.9l-24.1-5.1l11.7-29.9l27.3,5.7L193.6,254.9z M236.9,169.9l-33.4-7l13-33.3l13.3,2.8c0.3,1.3-1.3,12.6-1.9,14.7
	c-0.5,2.1,1.3,8.3,5.9,9.4c4.5,1.1,8.3-1.9,9.4-5.1c1.1-3.2,2.2-16.1,2.2-16.1l8,2.1L236.9,169.9z"/>
</svg>
